<?xml version="1.0" encoding="UTF-8"?>
<svg version="1.1" xmlns="http://www.w3.org/2000/svg" width="481" height="486" fill="currentColor">
<path d="M0 0 C2.05159492 0.00084819 4.10319076 0.0003674 6.15478516 -0.00132751 C11.67440447 -0.00218141 17.19382459 0.01534539 22.71339798 0.03639436 C28.50024634 0.05526302 34.28710024 0.05691958 40.07397461 0.06047058 C51.00993607 0.06976129 61.94580659 0.09433449 72.88172817 0.12451905 C85.34134146 0.15815607 97.80095931 0.17457238 110.26060677 0.18960536 C135.87040267 0.22088694 161.48011809 0.27358909 187.08984375 0.34057617 C187.0979306 1.30729248 187.10601746 2.27400879 187.11434937 3.27001953 C187.19234472 12.44801855 187.28021099 21.62587899 187.37737083 30.80369568 C187.42699629 35.52038725 187.47332478 40.23705999 187.51171875 44.95385742 C187.54900359 49.51867212 187.59547066 54.08331485 187.64790726 58.64797974 C187.66622481 60.37636247 187.68141303 62.10478174 187.69318771 63.83322144 C187.85998081 87.50402885 189.9668748 107.9089752 207.38671875 125.68432617 C226.20520283 143.07520111 248.51952091 143.61991511 272.7734375 143.75463867 C274.92677012 143.77338839 277.08009569 143.79296451 279.2334137 143.81332397 C284.85067552 143.86424976 290.46796106 143.90408499 296.08532715 143.94146729 C301.83754145 143.98175747 307.58966049 144.03273458 313.34179688 144.08276367 C324.59107852 144.17905347 335.84041447 144.26360571 347.08984375 144.34057617 C347.18351779 173.20110209 347.25393569 202.06160503 347.29709244 230.92225266 C347.30117146 233.59652469 347.30533675 236.27079657 347.30957031 238.94506836 C347.31061955 239.60971986 347.3116688 240.27437136 347.31274983 240.95916381 C347.32901644 251.01570537 347.35715398 261.07216753 347.39160156 271.12866211 C347.43162159 282.81758353 347.45731255 294.50643628 347.46619773 306.19542432 C347.47138687 312.37773221 347.48347883 318.55984372 347.51276398 324.74208832 C347.54017322 330.57629748 347.54823781 336.41023176 347.54227448 342.24449921 C347.54336341 344.37113953 347.55116366 346.49779029 347.56666565 348.62437439 C347.68368853 365.52506406 346.14272145 382.21251299 339.90234375 398.09057617 C339.60755127 398.86095215 339.31275879 399.63132812 339.0090332 400.42504883 C329.13695923 425.31361864 310.96939491 447.37732069 288.08984375 461.34057617 C287.01734375 462.0237793 285.94484375 462.70698242 284.83984375 463.41088867 C278.45214335 467.29969702 271.95033162 470.41858715 264.96484375 473.09057617 C264.28083496 473.36015137 263.59682617 473.62972656 262.89208984 473.9074707 C245.5469564 480.19823083 227.88639208 480.92575824 209.63671875 480.8581543 C207.14407953 480.86358792 204.65144352 480.87071747 202.15881348 480.87939453 C196.14155365 480.89561384 190.12457201 480.89341594 184.10732365 480.88174397 C179.20902439 480.87264276 174.31078091 480.87151421 169.41247559 480.87583923 C168.71046736 480.87645217 168.00845914 480.8770651 167.28517795 480.8776966 C165.85825124 480.87897574 164.43132455 480.8802726 163.00439787 480.88158697 C149.68117754 480.89294352 136.358068 480.87995696 123.03486586 480.8583855 C111.64818852 480.840519 100.2616744 480.84362451 88.875 480.86206055 C75.59352059 480.88355494 62.31213784 480.89184534 49.03064346 480.87961149 C47.60949963 480.87833754 46.18835578 480.87708005 44.76721191 480.87583923 C43.71886457 480.87491358 43.71886457 480.87491358 42.64933848 480.87396923 C37.76730032 480.8705419 32.88532441 480.87628752 28.0032959 480.88575745 C21.41040704 480.89826716 14.81777527 480.88913078 8.22489929 480.86618042 C5.82090254 480.86094002 3.41687964 480.86232577 1.01289368 480.87123108 C-19.42861991 480.93991054 -38.09619561 478.60846705 -56.91015625 470.34057617 C-57.56435547 470.05730469 -58.21855469 469.7740332 -58.89257812 469.48217773 C-88.98765109 456.19630406 -112.69434214 430.61901331 -124.78125 400.14428711 C-125.63179609 397.88759626 -126.43864695 395.62119571 -127.22265625 393.34057617 C-127.56840698 392.34695068 -127.56840698 392.34695068 -127.92114258 391.33325195 C-133.06287478 375.43787857 -133.34865112 359.88486024 -133.31420898 343.34155273 C-133.31992145 340.84950455 -133.32688907 338.35745899 -133.33500671 335.86541748 C-133.35101023 329.83428945 -133.35305806 323.80331155 -133.34779381 317.77217701 C-133.3437292 312.86234632 -133.34522263 307.95254624 -133.35054207 303.04271698 C-133.35129049 302.3401668 -133.35203891 301.63761662 -133.35281001 300.91377704 C-133.35434172 299.4858842 -133.35588007 298.05799137 -133.35742498 296.63009855 C-133.37111003 283.28021281 -133.36574096 269.93038589 -133.35423977 256.58050153 C-133.34431554 244.41203562 -133.35724114 232.24372194 -133.38117396 220.0752795 C-133.40565592 207.53152299 -133.41515037 194.98783711 -133.40852123 182.44405723 C-133.40504861 175.4214229 -133.40713006 168.39890542 -133.42477226 161.37628937 C-133.44117228 154.7670507 -133.43617221 148.15805289 -133.41746712 141.54880524 C-133.41380937 139.13835705 -133.41680633 136.727887 -133.42735291 134.31745911 C-133.49886139 116.60698 -132.27001536 99.24972511 -125.72265625 82.59057617 C-125.42786377 81.8202002 -125.13307129 81.04982422 -124.8293457 80.25610352 C-112.45272166 49.05329117 -87.62858354 23.77784346 -57.00488281 10.21948242 C-53.35179535 8.68671845 -49.65615307 7.31583868 -45.91015625 6.02807617 C-44.91653076 5.68232544 -44.91653076 5.68232544 -43.90283203 5.32958984 C-29.34146471 0.61937326 -15.15322114 -0.08877071 0 0 Z M96.08984375 157.34057617 C91.77366714 162.82328701 90.96089145 167.21470551 90.97631836 174.04882812 C90.97639389 175.16961258 90.97646942 176.29039703 90.97654724 177.44514465 C90.98170853 178.64426987 90.98686981 179.84339508 90.9921875 181.07885742 C90.99360245 182.3147612 90.9950174 183.55066498 90.99647522 184.82402039 C91.00111757 188.09715963 91.01009064 191.37024904 91.0211792 194.64337158 C91.03143971 197.98839865 91.03589744 201.3334279 91.04101562 204.6784668 C91.05203468 211.23252267 91.06876539 217.78654535 91.08984375 224.34057617 C90.40825699 224.33391434 89.72667023 224.3272525 89.02442932 224.32038879 C81.9024835 224.25379323 74.78062678 224.20867511 67.65844727 224.17578125 C65.00364599 224.16243648 62.34933522 224.14029606 59.69458008 224.11425781 C55.86924123 224.07768944 52.04423233 224.06080689 48.21875 224.04760742 C47.04026993 224.03212357 45.86178986 224.01663971 44.64759827 224.00068665 C33.82793283 223.95277917 33.82793283 223.95277917 24.47315979 228.7928009 C20.4044618 233.52904595 19.7338851 236.73943103 19.8125 242.80151367 C20.22360819 246.56518019 21.57270735 248.55847805 24.08984375 251.34057617 C29.57255458 255.65675279 33.96397309 256.46952848 40.7980957 256.45410156 C41.91888016 256.45402603 43.03966461 256.4539505 44.19441223 256.45387268 C45.39353745 256.4487114 46.59266266 256.44355011 47.828125 256.43823242 C49.06402878 256.43681747 50.29993256 256.43540253 51.57328796 256.4339447 C54.8464272 256.42930235 58.11951662 256.42032928 61.39263916 256.40924072 C64.73766623 256.39898022 68.08269548 256.39452248 71.42773438 256.3894043 C77.98179025 256.37838524 84.53581293 256.36165453 91.08984375 256.34057617 C91.08318192 257.02216293 91.07652008 257.70374969 91.06965637 258.4059906 C91.0030608 265.52793643 90.95794269 272.64979314 90.92504883 279.77197266 C90.91170405 282.42677393 90.88956364 285.0810847 90.86352539 287.73583984 C90.82695702 291.56117869 90.81007447 295.38618759 90.796875 299.21166992 C90.77364922 300.97939003 90.77364922 300.97939003 90.74995422 302.78282166 C90.70204675 313.60248709 90.70204675 313.60248709 95.54206848 322.95726013 C100.27831353 327.02595812 103.4886986 327.69653483 109.55078125 327.61791992 C113.31444777 327.20681173 115.30774562 325.85771257 118.08984375 323.34057617 C122.40602036 317.85786534 123.21879605 313.46644683 123.20336914 306.63232422 C123.20329361 305.51153976 123.20321808 304.39075531 123.20314026 303.23600769 C123.19797897 302.03688248 123.19281769 300.83775726 123.1875 299.60229492 C123.18608505 298.36639114 123.1846701 297.13048737 123.18321228 295.85713196 C123.17856993 292.58399272 123.16959686 289.3109033 123.1585083 286.03778076 C123.14824779 282.69275369 123.14379006 279.34772444 123.13867188 276.00268555 C123.12765282 269.44862967 123.11092211 262.894607 123.08984375 256.34057617 C123.77143051 256.34723801 124.45301727 256.35389984 125.15525818 256.36076355 C132.277204 256.42735912 139.39906072 256.47247723 146.52124023 256.50537109 C149.17604151 256.51871587 151.83035228 256.54085628 154.48510742 256.56689453 C158.31044627 256.60346291 162.13545517 256.62034545 165.9609375 256.63354492 C167.13941757 256.64902878 168.31789764 256.66451263 169.53208923 256.6804657 C180.35175467 256.72837317 180.35175467 256.72837317 189.70652771 251.88835144 C193.7752257 247.15210639 194.4458024 243.94172132 194.3671875 237.87963867 C193.95607931 234.11597215 192.60698015 232.1226743 190.08984375 229.34057617 C184.60713292 225.02439956 180.21571441 224.21162387 173.3815918 224.22705078 C171.70041512 224.22716408 171.70041512 224.22716408 169.98527527 224.22727966 C168.78615005 224.23244095 167.58702484 224.23760223 166.3515625 224.24291992 C165.11565872 224.24433487 163.87975494 224.24574982 162.60639954 224.24720764 C159.3332603 224.25184999 156.06017088 224.26082306 152.78704834 224.27191162 C149.44202127 224.28217213 146.09699202 224.28662987 142.75195312 224.29174805 C136.19789725 224.3027671 129.64387457 224.31949781 123.08984375 224.34057617 C123.09650558 223.65898941 123.10316742 222.97740265 123.11003113 222.27516174 C123.1766267 215.15321592 123.22174481 208.0313592 123.25463867 200.90917969 C123.26798345 198.25437841 123.29012386 195.60006764 123.31616211 192.9453125 C123.35273048 189.11997365 123.36961303 185.29496476 123.3828125 181.46948242 C123.39829636 180.29100235 123.41378021 179.11252228 123.42973328 177.89833069 C123.47764075 167.07866525 123.47764075 167.07866525 118.63761902 157.72389221 C113.90137397 153.65519422 110.6909889 152.98461752 104.62890625 153.06323242 C100.86523973 153.47434061 98.87194188 154.82343977 96.08984375 157.34057617 Z " fill="currentColor" transform="translate(132.91015625,3.659423828125)"/>
<path d="M0 0 C1.76580153 0.94011333 3.52886922 1.88536275 5.29077148 2.83276367 C6.27287094 3.35859543 7.2549704 3.88442719 8.26683044 4.42619324 C11.7132269 6.4106885 14.21015055 8.54223255 17.0625 11.3125 C18.08023648 12.28437036 19.09847217 13.25571822 20.1171875 14.2265625 C20.60670898 14.6999707 21.09623047 15.17337891 21.60058594 15.66113281 C23.58232867 17.55713371 25.63356183 19.37028691 27.6875 21.1875 C33.76799441 26.64435396 39.68770096 32.27157179 45.62890625 37.87890625 C49.61535269 41.64081357 53.61601749 45.38713082 57.625 49.125 C58.23561279 49.69436279 58.84622559 50.26372559 59.4753418 50.8503418 C60.70254597 51.99440074 61.92984049 53.13836277 63.15722656 54.28222656 C66.27293906 57.18659237 69.38634111 60.09343299 72.5 63 C73.74998918 64.16667826 74.99998917 65.33334493 76.25 66.5 C78.75 68.83333333 81.25 71.16666667 83.75 73.5 C84.6790918 74.3669751 84.6790918 74.3669751 85.62695312 75.25146484 C86.87091961 76.41273804 88.11441305 77.5745182 89.35742188 78.73681641 C92.5709483 81.74043515 95.79339496 84.73354575 99.03125 87.7109375 C112.971401 100.56060758 112.971401 100.56060758 117 106 C117 106.33 117 106.66 117 107 C105.04708015 107.09289589 93.09424694 107.16386438 81.14103889 107.20724869 C75.58998947 107.22807654 70.039188 107.2563064 64.48828125 107.30175781 C59.12606257 107.34538683 53.76408162 107.36917319 48.40169907 107.37950897 C46.36126847 107.38686978 44.32085012 107.40124345 42.28052139 107.42292023 C18.13124699 107.66915993 18.13124699 107.66915993 8.53125 98.703125 C2.14256862 91.59734673 -0.31771883 84.2139471 -0.22705078 74.69970703 C-0.22734283 73.88928452 -0.22763489 73.078862 -0.22793579 72.24388123 C-0.22654937 69.58174704 -0.21102074 66.91989742 -0.1953125 64.2578125 C-0.19157992 62.40550896 -0.18873411 60.55320344 -0.18673706 58.70089722 C-0.17911988 53.83799743 -0.15948787 48.97521809 -0.1373291 44.11236572 C-0.11682937 39.14523955 -0.10772653 34.17809383 -0.09765625 29.2109375 C-0.07624015 19.47390556 -0.04212737 9.73696282 0 0 Z " fill="currentColor" transform="translate(352,9)"/>
</svg>
