<?xml version="1.0" encoding="UTF-8"?>
<svg version="1.1" xmlns="http://www.w3.org/2000/svg" width="379" height="415">
<path d="M0 0 C3.35618548 3.28160358 5.57513257 6.18483574 6 11 C6.66 11 7.32 11 8 11 C11.90533878 21.67459267 11.89736871 32.12958016 9 43 C8.66558144 44.33306156 8.33192594 45.66631561 8 47 C7.34 47 6.68 47 6 47 C5.6596875 48.051875 5.6596875 48.051875 5.3125 49.125 C3.66158712 52.74128535 1.7091165 55.08769976 -1 58 C-1.66 58 -2.32 58 -3 58 C-3 58.66 -3 59.32 -3 60 C-3.639375 60.28875 -4.27875 60.5775 -4.9375 60.875 C-7.15206079 61.82823451 -7.15206079 61.82823451 -8 64 C-8.23029956 66.37123246 -8.41119942 68.74741943 -8.5625 71.125 C-8.64628906 72.40632813 -8.73007813 73.68765625 -8.81640625 75.0078125 C-8.87699219 75.99523437 -8.93757812 76.98265625 -9 78 C-7.96096527 77.99111755 -6.92193054 77.98223511 -5.85140991 77.9730835 C3.94761184 77.89194447 13.74656529 77.83200904 23.54584694 77.79275131 C28.58360436 77.77188984 33.62109025 77.74359837 38.65869141 77.69824219 C43.52163735 77.65473326 48.38432237 77.63085205 53.24744797 77.62049103 C55.10139447 77.61310873 56.95532693 77.59869272 58.80916214 77.57707977 C61.40905703 77.54797846 64.00787821 77.54404677 66.60791016 77.54589844 C67.37180054 77.53151733 68.13569092 77.51713623 68.92272949 77.50231934 C74.09378166 77.5420849 77.07348339 78.64555225 81 82 C83.31841908 85.1985043 83.24335919 88.08051232 83.22705078 91.96191406 C83.22682419 93.76332855 83.22682419 93.76332855 83.22659302 95.60113525 C83.21627045 96.89291687 83.20594788 98.18469849 83.1953125 99.515625 C83.19158034 100.85512073 83.18873432 102.19461921 83.18673706 103.53411865 C83.17911657 107.05228265 83.15948187 110.5702804 83.1373291 114.08837891 C83.11683643 117.68129223 83.10772804 121.27423253 83.09765625 124.8671875 C83.07623434 131.91152617 83.04211765 138.95575221 83 146 C82.0255896 146.11275269 82.0255896 146.11275269 81.03149414 146.2277832 C78.04058323 146.57954559 75.05163023 146.94592576 72.0625 147.3125 C70.53012695 147.48942383 70.53012695 147.48942383 68.96679688 147.66992188 C62.6484604 148.45719064 56.95179954 149.75027047 51 152 C49.88753906 152.37640625 48.77507812 152.7528125 47.62890625 153.140625 C40.19341047 155.83066424 34.19362774 159.10519248 28 164 C27.00097656 164.78503906 26.00195312 165.57007813 24.97265625 166.37890625 C19.81224559 170.10643728 19.81224559 170.10643728 16 175 C15.34 175 14.68 175 14 175 C14 175.66 14 176.32 14 177 C13.34 177 12.68 177 12 177 C12 177.66 12 178.32 12 179 C11.34 179 10.68 179 10 179 C9.9175 179.61875 9.835 180.2375 9.75 180.875 C9.5025 181.57625 9.255 182.2775 9 183 C8.34 183.309375 7.68 183.61875 7 183.9375 C6.34 184.288125 5.68 184.63875 5 185 C4.32041397 187.39719432 4.32041397 187.39719432 4 190 C2.9375 192.3125 2.9375 192.3125 2 194 C1.34 194 0.68 194 0 194 C-0.29003906 195.24716797 -0.29003906 195.24716797 -0.5859375 196.51953125 C-0.84632813 197.60621094 -1.10671875 198.69289062 -1.375 199.8125 C-1.63023437 200.89144531 -1.88546875 201.97039062 -2.1484375 203.08203125 C-3 206 -3 206 -5 209 C-7.35836642 216.97194282 -7.29863218 224.73252923 -7.25 233 C-7.25773438 234.31484375 -7.26546875 235.6296875 -7.2734375 236.984375 C-7.25621293 245.5622093 -6.91745856 253.54903445 -3.1875 261.4375 C-2.84074219 262.17484375 -2.49398437 262.9121875 -2.13671875 263.671875 C-1.76160156 264.44015625 -1.38648438 265.2084375 -1 266 C-0.59394531 266.85078125 -0.18789062 267.7015625 0.23046875 268.578125 C2.52813905 273.30072119 4.96839437 277.69707587 8 282 C8.66 283.051875 9.32 284.10375 10 285.1875 C11.81150385 288.03689937 11.81150385 288.03689937 14.25 289.6875 C14.8275 290.120625 15.405 290.55375 16 291 C16 291.99 16 292.98 16 294 C16.99 294.33 17.98 294.66 19 295 C18.67 295.99 18.34 296.98 18 298 C9.96565902 299.01141986 2.0153477 299.15408049 -6.07519531 299.16113281 C-7.46593352 299.16577171 -8.85667047 299.17079778 -10.24740601 299.17617798 C-13.99503064 299.1891888 -17.74263747 299.19572293 -21.49028111 299.20018864 C-23.8351852 299.20313387 -26.18008458 299.20724099 -28.52498627 299.21169281 C-35.87299106 299.2253292 -43.22098488 299.23501831 -50.56900144 299.2388947 C-59.03266699 299.24338566 -67.49617187 299.26099762 -75.95978856 299.2898953 C-82.5196933 299.31151254 -89.07955277 299.32159877 -95.63949275 299.32293582 C-99.55087542 299.32398252 -103.46210624 299.32986333 -107.37345123 299.34775543 C-111.04747583 299.36424007 -114.72123433 299.3663899 -118.39528275 299.35761642 C-120.38122748 299.3564803 -122.36716343 299.37018892 -124.35305786 299.3843689 C-125.54166412 299.37879974 -126.73027039 299.37323059 -127.95489502 299.36749268 C-128.98353291 299.36895924 -130.01217079 299.3704258 -131.07197952 299.3719368 C-135.67733376 298.78693382 -138.96119501 296.95811908 -142.34661865 293.83564758 C-144.52968138 290.09156485 -144.53205422 286.84047406 -144.45410156 282.62963867 C-144.45468567 281.79985504 -144.45526978 280.97007141 -144.45587158 280.11514282 C-144.4530929 277.38232055 -144.42201173 274.65059962 -144.390625 271.91796875 C-144.38316183 270.01939998 -144.37746926 268.1208235 -144.37347412 266.22224426 C-144.35822379 261.23258076 -144.31894706 256.24338524 -144.2746582 251.25390625 C-144.2336926 246.1595696 -144.21546034 241.06515712 -144.1953125 235.97070312 C-144.1524523 225.98026348 -144.08420815 215.9901707 -144 206 C-139.21731913 205.38324703 -134.58083212 204.84411539 -129.75 204.8125 C-128.75484375 204.79832031 -127.7596875 204.78414062 -126.734375 204.76953125 C-123.94702965 205.00446464 -122.31657484 205.45561678 -120 207 C-119.63837971 208.32594105 -119.30271961 209.65938457 -119 211 C-118.01 211.33 -117.02 211.66 -116 212 C-115.71125 212.804375 -115.4225 213.60875 -115.125 214.4375 C-114.25818894 217.18337398 -114.25818894 217.18337398 -111.75 218.03125 C-110.8425 218.3509375 -109.935 218.670625 -109 219 C-108.15179688 219.34160156 -107.30359375 219.68320312 -106.4296875 220.03515625 C-105.16511719 220.54369141 -105.16511719 220.54369141 -103.875 221.0625 C-103.02679688 221.40410156 -102.17859375 221.74570312 -101.3046875 222.09765625 C-93.74181257 225.05871406 -85.91186435 224.96991523 -78.3203125 222.03125 C-77.55460937 221.6909375 -76.78890625 221.350625 -76 221 C-74.63488281 220.39671875 -74.63488281 220.39671875 -73.2421875 219.78125 C-63.9878538 215.24233974 -58.36353483 208.71687839 -55 199 C-54.30859478 196.22111387 -54.30859478 196.22111387 -54 194 C-53.34 194 -52.68 194 -52 194 C-52.2165625 192.0509375 -52.2165625 192.0509375 -52.4375 190.0625 C-52.51871094 189.33160156 -52.59992188 188.60070312 -52.68359375 187.84765625 C-52.81886614 185.98859771 -52.81886614 185.98859771 -54 185 C-54.34888484 183.63377871 -54.65421345 182.25631458 -54.9375 180.875 C-55.79330008 176.8533831 -56.82645709 172.93975121 -58 169 C-58.66 169 -59.32 169 -60 169 C-60.53625 168.13375 -61.0725 167.2675 -61.625 166.375 C-65.6929067 160.04880686 -71.90888683 156.32778002 -79.1015625 154.46875 C-88.57876722 152.93604843 -99.14475831 152.91187724 -108 157 C-110.33648338 158.68916257 -112.38914959 160.45417236 -114.44140625 162.4765625 C-116 164 -116 164 -118 165 C-119.03013277 166.64821244 -120.03114628 168.31503702 -121 170 C-122 171 -122 171 -124.13305664 171.11352539 C-125.04949951 171.10828857 -125.96594238 171.10305176 -126.91015625 171.09765625 C-127.89951172 171.09443359 -128.88886719 171.09121094 -129.90820312 171.08789062 C-130.94912109 171.07951172 -131.99003906 171.07113281 -133.0625 171.0625 C-134.10728516 171.05798828 -135.15207031 171.05347656 -136.22851562 171.04882812 C-138.8190666 171.03699913 -141.40950559 171.02051689 -144 171 C-144.02314739 159.96919289 -144.04092736 148.93839154 -144.05181217 137.90756512 C-144.05703573 132.78578014 -144.06412388 127.66401176 -144.07543945 122.54223633 C-144.08628697 117.60152332 -144.09228081 112.6608263 -144.09487724 107.72010231 C-144.09672812 105.83301352 -144.10034229 103.94592562 -144.10573006 102.05884361 C-144.11296518 99.42031321 -144.11398989 96.78184924 -144.11352539 94.14331055 C-144.11712067 93.3592836 -144.12071594 92.57525665 -144.12442017 91.76747131 C-144.11832022 88.5755228 -144.01707621 86.05122864 -143 83 C-140.4375 81.8125 -140.4375 81.8125 -138 81 C-138 80.34 -138 79.68 -138 79 C-134.30148687 77.76716229 -130.89068897 77.86838653 -127.0402832 77.88647461 C-125.82530655 77.88625557 -125.82530655 77.88625557 -124.58578491 77.8860321 C-121.90742315 77.886729 -119.22913087 77.89451097 -116.55078125 77.90234375 C-114.69418882 77.90420872 -112.8375959 77.90563225 -110.98100281 77.90663147 C-106.09344119 77.9104504 -101.20590926 77.92027539 -96.31835938 77.93133545 C-91.33138429 77.94156296 -86.34440442 77.94613197 -81.35742188 77.95117188 C-71.57159943 77.96189819 -61.78580683 77.97948997 -52 78 C-52 72.72 -52 67.44 -52 62 C-53.65 61.67 -55.3 61.34 -57 61 C-57.33 60.01 -57.66 59.02 -58 58 C-59.93330603 56.90833725 -59.93330603 56.90833725 -62 56 C-62.66 55.34 -63.32 54.68 -64 54 C-64 53.01 -64 52.02 -64 51 C-65.485 50.505 -65.485 50.505 -67 50 C-68.1328125 48.00390625 -68.1328125 48.00390625 -69.125 45.5625 C-69.62386719 44.35787109 -69.62386719 44.35787109 -70.1328125 43.12890625 C-70.41898437 42.42636719 -70.70515625 41.72382812 -71 41 C-71.33 40.34 -71.66 39.68 -72 39 C-72.78746436 27.78425755 -73.05866086 16.93279049 -67 7 C-66.01 6.67 -65.02 6.34 -64 6 C-63.731875 5.2575 -63.46375 4.515 -63.1875 3.75 C-61.52992893 -0.08858564 -59.3676208 -1.54444317 -56 -4 C-55.34 -4 -54.68 -4 -54 -4 C-54 -4.66 -54 -5.32 -54 -6 C-35.797186 -13.87445676 -15.48834903 -13.37777736 0 0 Z " fill="#000000" transform="translate(214,39)"/>
<path d="M0 0 C1.19367188 -0.01160156 2.38734375 -0.02320313 3.6171875 -0.03515625 C11.19652694 -0.01027877 17.81130573 0.95981879 25 3.375 C25 4.035 25 4.695 25 5.375 C25.825 5.4575 26.65 5.54 27.5 5.625 C40.10118297 8.32525349 50.35456213 19.45659412 58 29.375 C59.5393335 32.06489335 60 33.20007838 60 36.375 C60.66 36.375 61.32 36.375 62 36.375 C64.2984026 43.3878005 66.29304897 50.02270928 67 57.375 C67.33 57.705 67.66 58.035 68 58.375 C68.07313567 60.90549402 68.09247527 63.40804837 68.0625 65.9375 C68.05798828 66.64841797 68.05347656 67.35933594 68.04882812 68.09179688 C68.03700864 69.85290013 68.01907263 71.61396036 68 73.375 C67.34 73.375 66.68 73.375 66 73.375 C66.0825 74.6125 66.165 75.85 66.25 77.125 C66.21863891 87.09782761 61.90971984 95.59831404 56 103.375 C55.40574219 104.17164063 54.81148438 104.96828125 54.19921875 105.7890625 C48.46627142 113.32659924 48.46627142 113.32659924 45 116.375 C44.01 116.375 43.02 116.375 42 116.375 C41.75121094 116.98859375 41.50242187 117.6021875 41.24609375 118.234375 C39.77939661 120.75396758 38.67229492 121.40029177 36.0625 122.625 C35.02802734 123.12773437 35.02802734 123.12773437 33.97265625 123.640625 C32 124.375 32 124.375 29 124.375 C29 125.035 29 125.695 29 126.375 C16.18538054 131.90287506 3.00717375 132.00521385 -10.625 130.5625 C-11.32979492 130.49256836 -12.03458984 130.42263672 -12.76074219 130.35058594 C-25.36744942 128.87263941 -40.70969032 122.13284897 -49 112.375 C-49 111.715 -49 111.055 -49 110.375 C-49.66 110.375 -50.32 110.375 -51 110.375 C-51 109.715 -51 109.055 -51 108.375 C-51.5775 108.16875 -52.155 107.9625 -52.75 107.75 C-55.85351328 105.85340855 -57.12357392 103.46202356 -59 100.375 C-59.8353125 99.1375 -59.8353125 99.1375 -60.6875 97.875 C-62.1802891 95.03159219 -62.63098214 92.54855362 -63 89.375 C-63.66 89.375 -64.32 89.375 -65 89.375 C-69.44570929 73.39161659 -69.44570929 57.35838341 -65 41.375 C-64.34 41.375 -63.68 41.375 -63 41.375 C-62.8453125 40.323125 -62.8453125 40.323125 -62.6875 39.25 C-61.90640997 35.98362353 -60.57941257 33.3278148 -59 30.375 C-58.34 30.375 -57.68 30.375 -57 30.375 C-56.814375 29.715 -56.62875 29.055 -56.4375 28.375 C-53.54922707 22.34729997 -48.49390479 17.142249 -43 13.375 C-42.34 13.375 -41.68 13.375 -41 13.375 C-40.67 12.385 -40.34 11.395 -40 10.375 C-37.890625 8.98828125 -37.890625 8.98828125 -35.25 7.6875 C-34.38890625 7.25050781 -33.5278125 6.81351563 -32.640625 6.36328125 C-29.88971748 5.33372562 -27.90929095 5.18139611 -25 5.375 C-25 4.715 -25 4.055 -25 3.375 C-16.57815501 0.5455179 -8.84728615 -0.08598874 0 0 Z M-9 28.375 C-9 37.945 -9 47.515 -9 57.375 C-18.57 57.375 -28.14 57.375 -38 57.375 C-38 62.655 -38 67.935 -38 73.375 C-28.43 73.375 -18.86 73.375 -9 73.375 C-9 82.945 -9 92.515 -9 102.375 C-3.06 102.375 2.88 102.375 9 102.375 C9 92.805 9 83.235 9 73.375 C18.57 73.375 28.14 73.375 38 73.375 C38 68.095 38 62.815 38 57.375 C28.43 57.375 18.86 57.375 9 57.375 C9 47.805 9 38.235 9 28.375 C3.06 28.375 -2.88 28.375 -9 28.375 Z " fill="#000000" transform="translate(296,206.625)"/>
</svg>
